<?xml version="1.0" encoding="UTF-8" standalone="no"?>
<svg
   xmlns:dc="http://purl.org/dc/elements/1.1/"
   xmlns:cc="http://creativecommons.org/ns#"
   xmlns:rdf="http://www.w3.org/1999/02/22-rdf-syntax-ns#"
   xmlns:svg="http://www.w3.org/2000/svg"
   xmlns="http://www.w3.org/2000/svg"
   xmlns:sodipodi="http://sodipodi.sourceforge.net/DTD/sodipodi-0.dtd"
   xmlns:inkscape="http://www.inkscape.org/namespaces/inkscape"
   version="1.1"
   id="crest"
   x="0px"
   y="0px"
   width="278.75919"
   height="387.56485"
   viewBox="-8.287 -1.629 278.75918 387.56485"
   enable-background="new -8.287 -1.629 256 256"
   xml:space="preserve"
   inkscape:version="0.91pre2 r13516"
   sodipodi:docname="ccc-ol-2.svg"><sodipodi:namedview
     pagecolor="#ffffff"
     bordercolor="#666666"
     borderopacity="1"
     objecttolerance="10"
     gridtolerance="10"
     guidetolerance="10"
     inkscape:pageopacity="0"
     inkscape:pageshadow="2"
     inkscape:window-width="825"
     inkscape:window-height="652"
     id="namedview118"
     showgrid="false"
     inkscape:zoom="0.90433075"
     inkscape:cx="227.10031"
     inkscape:cy="169.67485"
     inkscape:window-x="0"
     inkscape:window-y="0"
     inkscape:window-maximized="0"
     inkscape:current-layer="crest"
     fit-margin-top="10"
     fit-margin-left="10"
     fit-margin-bottom="10"
     fit-margin-right="10" /><metadata
     id="metadata249"><rdf:RDF><cc:Work
         rdf:about=""><dc:format>image/svg+xml</dc:format><dc:type
           rdf:resource="http://purl.org/dc/dcmitype/StillImage" /><dc:title></dc:title></cc:Work></rdf:RDF></metadata><defs
     id="defs247" /><g
     id="g4247"
     transform="translate(18.333191,18.502536)"><path
       id="door_stroke"
       d="m 149.018,343.64033 c 0,0 0,-39.168 0,-43.664 0,-24.476 -24.289,-36.927 -27.411,-36.927 -3.05,0 -26.771003,12.451 -26.771003,36.927 0,4.496 0,42.244 0,42.244"
       style="fill:none;stroke:#000000;stroke-width:3;stroke-opacity:1"
       inkscape:connector-curvature="0" /><path
       style="fill:#000000;fill-opacity:1;stroke:none;stroke-opacity:1"
       d="m 113.628,354.50433 c -4.302,-1.9 -9.637,-4.725 -15.641003,-8.477 l 0,0 c -12.003,-7.502 -26.68,-18.711 -40.935,-33.617 l 0,0 c -28.503,-29.8 -55.3410003,-74.474 -55.3390003,-133.66 l 0,0 c 0,-10.786 0,-29.176 0,-44.869 l 0,0 c 0,-15.696 0,-28.665 0,-28.692 l 0,0 0,-1.501 240.4260033,0 0,1.501 c -0.002,0.027 -0.002,12.996 0,28.691 l 0,0 c -0.002,15.693 -0.002,34.083 0,44.869 l 0,0 c 0.002,51.774 -20.066,92.458 -43.732,121.775 l 0,0 c -23.687,29.329 -50.901,47.326 -65.588,53.975 l 0,0 c -4.234,1.896 -7.33,2.899 -9.496,2.934 l 0,0 c -2.195,-0.033 -5.364,-1.037 -9.695,-2.929 l 0,0 z m 17.954,-2.739 c 4.039,-1.824 9.141,-4.586 14.9,-8.271 l 0,0 c 11.521,-7.371 25.68,-18.438 39.414,-33.146 l 0,0 c 27.475,-29.43 53.236,-73.348 53.238,-131.601 l 0,0 c 0,-10.786 0,-29.176 0,-44.869 l 0,0 c 0,-12.544 0,-23.347 0,-27.193 l 0,0 -234.4210033,0 c 0,3.846 0,14.649 0.001,27.193 l 0,0 c -0.001,15.695 -0.001,34.085 0,44.871 l 0,0 c 0.003,50.968 20.1920003,90.949 44.0890003,119.876 l 0,0 c 23.878,28.914 51.522003,46.731 66.036003,53.135 l 0,0 c 4.106,1.833 7.258,2.695 8.483,2.668 l 0,0 c 1.174,0.029 4.254,-0.83 8.26,-2.663 l 0,0 z m -128.3680033,-245.077 0,-1.499 0,1.499 0,0 z"
       id="shield_outline"
       inkscape:connector-curvature="0" /><g
       transform="translate(-6.0740034,102.55933)"
       id="g5095"><g
         id="g4777"><g
           id="g4772"><circle
             cx="201.73"
             cy="42.120998"
             r="7"
             id="circle60"
             style="fill:none;stroke:#000000"
             d="m 208.73,42.120998 a 7,7 0 0 1 -7,7 7,7 0 0 1 -7,-7 7,7 0 0 1 7,-7 7,7 0 0 1 7,7 z" /><line
             x1="201.73"
             y1="49.120998"
             x2="201.73"
             y2="52.786999"
             id="line64"
             style="fill:none;stroke:#000000" /><path
             style="fill:none;stroke:#000000;stroke-opacity:1"
             d="m 201.75436,52.753871 -21.23633,31.464839 3.12109,0 0,5.90625 8.29688,0 0,-5.90625 5.93945,0 0,5.90625 8.29883,0 0,-5.90625 5.9375,0 0,5.90625 8.29883,0 0,-5.90625 2.58203,0 -21.23828,-31.464839 z"
             id="polygon62-2"
             inkscape:connector-curvature="0" /></g><g
           id="g4641"><g
             id="g4615"><path
               id="polyline68"
               d="m 221.73,133.538 0,-35.667 3.5,0 0,-3 1.096,-1.712 0,-8.908 -5.939,0 0,5.908 -8.299,0 0,-5.908 -5.938,0 0,5.908 -8.298,0 0,-5.908 -5.94,0 0,5.908 -8.297,0 0,-5.908 -5.939,0 0,8.908 1.388,1.712 0,3 3.5,0 0,34.334"
               style="fill:none;stroke:#000000;stroke-width:2"
               inkscape:connector-curvature="0" /><path
               id="line83"
               transform="translate(-8.287,-1.629)"
               d="m 186.43945,95.5 47.99024,0 -47.99024,0 z m 4.41211,4 39.16602,0 -39.16602,0 z"
               style="fill:none;stroke:#000000;stroke-width:2"
               inkscape:connector-curvature="0" /></g><g
             id="g4619"><g
               id="g4598"><line
                 x1="190.89799"
                 y1="113.392"
                 x2="190.89799"
                 y2="120.537"
                 id="line71"
                 style="fill:none;stroke:#000000" /><path
                 style="fill:none;stroke:#000000"
                 d="m 190.89799,127.871 0,9.834"
                 id="line73"
                 inkscape:connector-curvature="0" /><path
                 style="fill:none;stroke:#000000"
                 d="m 212.73,127.871 0,11.584"
                 id="line75"
                 inkscape:connector-curvature="0" /><path
                 id="line77"
                 d="m 212.98,120.537 0,-6.833"
                 style="fill:none;stroke:#000000"
                 inkscape:connector-curvature="0" /><path
                 id="line79"
                 d="m 202.14799,120.537 0,-6.833"
                 style="fill:none;stroke:#000000"
                 inkscape:connector-curvature="0" /><path
                 style="fill:none;stroke:#000000"
                 d="m 202.14799,127.871 0,4.25"
                 id="line81"
                 inkscape:connector-curvature="0" /><line
                 x1="207.39799"
                 y1="120.537"
                 x2="207.39799"
                 y2="127.871"
                 id="line85"
                 style="fill:none;stroke:#000000" /><line
                 x1="195.564"
                 y1="120.537"
                 x2="195.564"
                 y2="127.871"
                 id="line87"
                 style="fill:none;stroke:#000000" /><path
                 id="line89"
                 d="m 212.936,99.871 0,-1.999998"
                 style="fill:none;stroke:#000000"
                 inkscape:connector-curvature="0" /><path
                 id="line91"
                 d="m 201.936,99.871 0,-1.999998"
                 style="fill:none;stroke:#000000"
                 inkscape:connector-curvature="0" /><path
                 id="line93"
                 d="m 190.936,99.871 0,-1.999998"
                 style="fill:none;stroke:#000000"
                 inkscape:connector-curvature="0" /><path
                 id="line95"
                 d="m 182.564,113.392 39.166,0"
                 style="fill:none;stroke:#000000"
                 inkscape:connector-curvature="0" /><path
                 id="line97"
                 d="m 182.564,104.204 5.62358,0 m 5.55932,0 5.42373,0 m 5.49152,0 5.55933,0 m 5.42372,0 6.0848,0"
                 style="fill:none;stroke:#000000"
                 inkscape:connector-curvature="0" /><line
                 x1="182.564"
                 y1="120.204"
                 x2="221.73"
                 y2="120.204"
                 id="line99"
                 style="fill:none;stroke:#000000" /><line
                 x1="182.564"
                 y1="128.20399"
                 x2="221.73"
                 y2="128.20399"
                 id="line101"
                 style="fill:none;stroke:#000000" /></g><g
               id="g4593"><path
                 d="m 205.572,113.392 c 0,0 0,-2.753 0,-3.896 0,-6.218 -3.223,-9.382 -3.637,-9.382 l 0,0 c -0.406,0 -3.554,3.164 -3.554,9.382 0,1.142 0,3.896 0,3.896 l 7.191,0 z"
                 id="path106"
                 style="fill:none;fill-opacity:1;stroke:#000000;stroke-opacity:1"
                 inkscape:connector-curvature="0" /><path
                 d="m 194.572,113.392 c 0,0 0,-2.753 0,-3.896 0,-6.218 -3.223,-9.382 -3.637,-9.382 l 0,0 c -0.406,0 -3.554,3.164 -3.554,9.382 0,1.142 0,3.896 0,3.896 l 7.191,0 z"
                 id="path108"
                 style="fill:none;fill-opacity:1;stroke:#000000;stroke-opacity:1"
                 inkscape:connector-curvature="0" /><path
                 d="m 216.572,113.392 c 0,0 0,-2.753 0,-3.896 0,-6.218 -3.223,-9.382 -3.637,-9.382 l 0,0 c -0.406,0 -3.554,3.164 -3.554,9.382 0,1.142 0,3.896 0,3.896 l 7.191,0 z"
                 id="path110"
                 style="fill:none;fill-opacity:1;stroke:#000000;stroke-opacity:1"
                 inkscape:connector-curvature="0" /></g></g></g></g><polyline
         style="fill:none;stroke:#000000;stroke-width:2;stroke-opacity:1"
         id="polyline209"
         points="20.084,138.658 29.048,138.658 29.048,132.751 37.809,132.751    37.809,138.658 50.051,138.658 50.051,132.751 58.813,132.751 58.813,138.658 71.055,138.658 71.055,132.751 79.816,132.751    79.816,138.658 92.058,138.658 92.058,132.751 100.82,132.751 100.82,138.658 113.061,138.658 113.061,132.751 121.823,132.751    121.823,138.658 134.064,138.658 134.064,132.751 142.827,132.751 142.827,138.658 155.424,138.658 155.424,132.751    164.186,132.751 164.186,138.658 176.428,138.658 176.428,132.751 185.189,132.751 185.189,138.658 197.432,138.658    197.432,132.751 206.193,132.751 206.193,138.658 218.434,138.658 218.434,132.751 227.197,132.751 227.197,138.658    236.16,138.658  " /><g
         id="g4958"><g
           id="g4932"><g
             id="g4884"><path
               id="polyline122"
               d="m 158.475,133.549 0,-55.397 5.404,0 0,-3.814 1.691,-2.177 0,-11.327 -9.174,0 0,7.512 -12.815,0 0,-7.512 -9.171,0 0,7.512 -12.819,0 0,-7.512 -9.172,0 0,7.512 -12.816,0 0,-7.512 -9.173,0 0,11.327 2.146,2.177 0,3.814 5.406,0 0,54.36"
               style="fill:none;stroke:#000000;stroke-width:2"
               inkscape:connector-curvature="0" /><path
               id="line133"
               transform="translate(-8.287,-1.629)"
               d="m 99.455078,74.695312 74.119142,0 -74.119142,0 z m 6.814452,5.085938 60.49219,0 -60.49219,0 z"
               style="fill:none;stroke:#000000;stroke-width:2"
               inkscape:connector-curvature="0" /></g><g
             id="g4910"><g
               id="g4893"><line
                 x1="106.852"
                 y1="99.888"
                 x2="106.852"
                 y2="108.975"
                 id="line125"
                 style="fill:none;stroke:#000000" /><path
                 style="fill:none;stroke:#000000"
                 d="m 105.852,119.299 0,18.378"
                 id="line127"
                 inkscape:connector-curvature="0" /><path
                 style="fill:none;stroke:#000000"
                 d="m 149.57401,119.299 0,18.906"
                 id="line129"
                 inkscape:connector-curvature="0" /><path
                 style="fill:none;stroke:#000000"
                 d="m 128.22701,119.299 0,18.31601"
                 id="line131"
                 inkscape:connector-curvature="0" /><line
                 x1="141.33701"
                 y1="108.975"
                 x2="141.33701"
                 y2="119.299"
                 id="line135"
                 style="fill:none;stroke:#000000" /><line
                 x1="114.06"
                 y1="108.975"
                 x2="114.06"
                 y2="119.299"
                 id="line137"
                 style="fill:none;stroke:#000000" /><line
                 x1="149.77"
                 y1="99.888"
                 x2="149.77"
                 y2="108.975"
                 id="line139"
                 style="fill:none;stroke:#000000" /><line
                 x1="128.686"
                 y1="99.888"
                 x2="128.686"
                 y2="108.975"
                 id="line141"
                 style="fill:none;stroke:#000000" /><path
                 id="line143"
                 d="m 106.909,82.324997 0,-4.172997"
                 style="fill:none;stroke:#000000"
                 inkscape:connector-curvature="0" /><path
                 id="line145"
                 d="m 128.909,82.324997 0,-4.172997"
                 style="fill:none;stroke:#000000"
                 inkscape:connector-curvature="0" /><path
                 id="line147"
                 d="m 149.909,82.324997 0,-4.172997"
                 style="fill:none;stroke:#000000"
                 inkscape:connector-curvature="0" /><line
                 x1="97.982002"
                 y1="99.974998"
                 x2="158.47501"
                 y2="99.974998"
                 id="line149"
                 style="fill:none;stroke:#000000" /><line
                 x1="97.982002"
                 y1="108.975"
                 x2="158.47501"
                 y2="108.975"
                 id="line151"
                 style="fill:none;stroke:#000000" /><line
                 x1="97.982002"
                 y1="118.975"
                 x2="158.47501"
                 y2="118.975"
                 id="line153"
                 style="fill:none;stroke:#000000" /><path
                 id="line155"
                 d="m 97.982002,87.975 4.375228,0 m 8.91674,0 13.03953,0 m 8.72498,-10e-7 12.36837,0 m 8.72498,-10e-7 4.34318,0"
                 style="fill:#000000;fill-opacity:1;stroke:#000000"
                 inkscape:connector-curvature="0" /></g><g
               id="g4888"><path
                 d="m 155.443,99.888 c 0,0 0,-3.667 0,-5.188 0,-8.282 -4.978,-12.496 -5.616,-12.496 l 0,0 c -0.625,0 -5.485,4.214 -5.485,12.496 0,1.521 0,5.188 0,5.188 l 11.101,0 z"
                 id="path160"
                 style="fill:none;fill-opacity:1;stroke:#000000;stroke-opacity:1"
                 inkscape:connector-curvature="0" /><path
                 d="m 134.359,99.888 c 0,0 0,-3.667 0,-5.188 0,-8.282 -4.978,-12.496 -5.616,-12.496 l 0,0 c -0.625,0 -5.486,4.214 -5.486,12.496 0,1.521 0,5.188 0,5.188 l 11.102,0 z"
                 id="path162"
                 style="fill:none;fill-opacity:1;stroke:#000000;stroke-opacity:1"
                 inkscape:connector-curvature="0" /><path
                 d="m 112.527,99.888 c 0,0 0,-3.667 0,-5.188 0,-8.282 -4.978,-12.496 -5.618,-12.496 l 0,0 c -0.625,0 -5.486,4.214 -5.486,12.496 0,1.521 0,5.188 0,5.188 l 11.104,0 z"
                 id="path164"
                 style="fill:none;fill-opacity:1;stroke:#000000;stroke-opacity:1"
                 inkscape:connector-curvature="0" /></g></g></g><g
           id="g4879"><path
             style="fill:none;stroke:#000000;stroke-opacity:1"
             d="m 127.90895,27.783809 -34.669919,33.046875 6.37109,0 0,7.511718 12.814459,0 0,-7.511718 9.17383,0 0,7.511718 12.81836,0 0,-7.511718 9.16992,0 0,7.511718 12.1797,0 0.63671,-0.333984 0,-7.177734 6.17579,0 -34.66994,-33.046875 z"
             id="polygon116-6"
             inkscape:connector-curvature="0" /></g></g><g
         id="g5064"><g
           id="g5017"><g
             id="g5013"><path
               id="polyline14"
               d="m 74,133.538 0,-35.667 3.5,0 0,-3 1.095,-1.712 0,-8.908 -5.939,0 0,5.908 -8.298,0 0,-5.908 -5.939,0 0,5.908 -8.299,0 0,-5.908 -5.938,0 0,5.908 -8.298,0 0,-5.908 -5.939,0 0,8.908 1.389,1.712 0,3 3.5,0 0,34.334"
               style="fill:none;stroke:#000000;stroke-width:2"
               inkscape:connector-curvature="0" /><path
               id="line29"
               transform="translate(-8.287,-1.629)"
               d="m 38.708984,95.5 47.990235,0 -47.990235,0 z m 4.41211,4 39.166015,0 -39.166015,0 z"
               style="fill:none;stroke:#000000;stroke-width:2"
               inkscape:connector-curvature="0" /></g><g
             id="g4831"><g
               id="g4809"><line
                 x1="43.167"
                 y1="113.392"
                 x2="43.167"
                 y2="120.537"
                 id="line17"
                 style="fill:none;stroke:#000000" /><path
                 style="fill:none;stroke:#000000"
                 d="m 43.167,127.871 0,9.834"
                 id="line19"
                 inkscape:connector-curvature="0" /><path
                 style="fill:none;stroke:#000000"
                 d="m 65,127.871 0,11.584"
                 id="line21"
                 inkscape:connector-curvature="0" /><path
                 id="line23"
                 d="m 65.25,120.537 0,-6.833"
                 style="fill:none;stroke:#000000"
                 inkscape:connector-curvature="0" /><path
                 id="line25"
                 d="m 54.417,120.537 0,-6.833"
                 style="fill:none;stroke:#000000"
                 inkscape:connector-curvature="0" /><path
                 style="fill:none;stroke:#000000"
                 d="m 54.417,127.871 0,4.25"
                 id="line27"
                 inkscape:connector-curvature="0" /><line
                 x1="59.667"
                 y1="120.537"
                 x2="59.667"
                 y2="127.871"
                 id="line31"
                 style="fill:none;stroke:#000000" /><line
                 x1="47.834"
                 y1="120.537"
                 x2="47.834"
                 y2="127.871"
                 id="line33"
                 style="fill:none;stroke:#000000" /><path
                 id="line35"
                 d="m 65.204002,99.871 0,-1.999998"
                 style="fill:none;stroke:#000000"
                 inkscape:connector-curvature="0" /><path
                 id="line37"
                 d="m 54.203999,99.871 0,-1.999998"
                 style="fill:none;stroke:#000000"
                 inkscape:connector-curvature="0" /><path
                 id="line39"
                 d="m 43.203999,99.871 0,-1.999998"
                 style="fill:none;stroke:#000000"
                 inkscape:connector-curvature="0" /><path
                 id="line41"
                 d="m 34.834,113.392 39.166,0"
                 style="fill:none;stroke:#000000"
                 inkscape:connector-curvature="0" /><path
                 id="line43"
                 d="m 34.834,104.204 5.729292,0 m 5.465097,0 5.465096,0 m 5.417157,0 5.560976,0 m 5.417157,0 6.111225,0"
                 style="fill:none;stroke:#000000"
                 inkscape:connector-curvature="0" /><line
                 x1="34.834"
                 y1="120.204"
                 x2="74"
                 y2="120.204"
                 id="line45"
                 style="fill:none;stroke:#000000" /><line
                 x1="34.834"
                 y1="128.20399"
                 x2="74"
                 y2="128.20399"
                 id="line47"
                 style="fill:none;stroke:#000000" /></g><g
               id="g4826"><path
                 d="m 57.841,113.392 c 0,0 0,-2.753 0,-3.896 0,-6.218 -3.223,-9.382 -3.637,-9.382 l 0,0 c -0.405,0 -3.552,3.164 -3.552,9.382 0,1.142 0,3.896 0,3.896 l 7.189,0 z"
                 id="path52"
                 style="fill:none;fill-opacity:1;stroke:#000000;stroke-opacity:1"
                 inkscape:connector-curvature="0" /><path
                 d="m 46.841,113.392 c 0,0 0,-2.753 0,-3.896 0,-6.218 -3.223,-9.382 -3.637,-9.382 l 0,0 c -0.405,0 -3.552,3.164 -3.552,9.382 0,1.142 0,3.896 0,3.896 l 7.189,0 z"
                 id="path54"
                 style="fill:none;fill-opacity:1;stroke:#000000;stroke-opacity:1"
                 inkscape:connector-curvature="0" /><path
                 d="m 68.841,113.392 c 0,0 0,-2.753 0,-3.896 0,-6.218 -3.223,-9.382 -3.637,-9.382 l 0,0 c -0.405,0 -3.552,3.164 -3.552,9.382 0,1.142 0,3.896 0,3.896 l 7.189,0 z"
                 id="path56"
                 style="fill:none;fill-opacity:1;stroke:#000000;stroke-opacity:1"
                 inkscape:connector-curvature="0" /></g></g></g><g
           id="g5059"><circle
             cx="54"
             cy="42.120998"
             r="7"
             id="circle6"
             style="fill:none;stroke:#000000"
             d="m 61,42.120998 a 7,7 0 0 1 -7,7 7,7 0 0 1 -7,-7 7,7 0 0 1 7,-7 7,7 0 0 1 7,7 z" /><line
             x1="54"
             y1="49.120998"
             x2="54"
             y2="52.786999"
             id="line10"
             style="fill:none;stroke:#000000" /><path
             style="fill:none;stroke:#000000;stroke-opacity:1"
             d="m 54.002551,52.768798 -21.236328,31.464843 3.121094,0 0,5.90625 8.296875,0 0,-5.90625 5.9375,0 0,5.90625 8.298828,0 0,-5.90625 5.939453,0 0,5.90625 8.298828,0 0,-5.90625 2.580079,0 -21.236329,-31.464843 z"
             id="polygon8-7"
             inkscape:connector-curvature="0" /></g></g></g><g
       id="g3922"
       transform="matrix(1.426639,0,0,1.426639,1.993468,2.7998481)"
       style="fill:#000000;fill-opacity:1"><path
         style="fill:#000000"
         d="m 99.5327,114.93626 c -0.14091,-0.26009 -0.33512,-0.81837 -0.43162,-1.24061 -0.14395,-0.62994 -0.0928,-0.85393 0.285,-1.24824 l 0.46047,-0.48053 1.00347,0.77914 c 2.50674,1.94633 5.11495,2.90835 8.40729,3.101 3.51229,0.2055 7.46252,-0.56416 14.93896,-2.9107 2.40619,-0.7552 3.78831,-1.08996 3.93709,-0.95355 0.27874,0.25602 0.17428,1.60739 -0.16974,2.19105 -0.55439,0.94059 -5.13373,3.64047 -8.15265,4.80664 -5.83119,2.2525 -11.71055,1.95417 -16.67049,-0.84595 -1.38,-0.77907 -3.14481,-2.34353 -3.6078,-3.19825 z"
         id="path4459"
         transform="matrix(0.75,0,0,0.75,-2.07175,-0.40725057)"
         inkscape:connector-curvature="0" /><path
         style="fill:#000000"
         d="m 99.85494,104.88454 c -0.93467,-0.83952 -1.396,-1.53321 -1.78325,-2.68143 l -0.31556,-0.93565 0.55343,-0.10682 c 0.85677,-0.16537 2.32277,0.19935 4.80248,1.1948 1.24938,0.50155 2.66399,0.98166 3.14358,1.06688 5.27053,0.93663 9.02898,0.63523 14.65774,-1.17541 2.75455,-0.88607 8.82995,-3.470953 9.47688,-4.032083 0.13112,-0.11378 0.47222,-0.0374 0.93529,0.20941 0.85222,0.45422 0.90312,0.3553 -1.23863,2.406883 -4.83592,4.63241 -11.11622,7.25219 -18.29663,7.63233 -1.61461,0.0855 -1.88373,0.0329 -6.03113,-1.17916 -4.66674,-1.3638 -4.82036,-1.42624 -5.90423,-2.39977 z"
         id="path4455"
         transform="matrix(0.75,0,0,0.75,-2.07175,-0.40725057)"
         inkscape:connector-curvature="0" /><path
         style="fill:#000000"
         d="m 99.371875,110.81457 c -0.93467,-0.83952 -1.396,-1.5332 -1.78325,-2.68142 l -0.31556,-0.93566 0.55343,-0.10682 c 0.85677,-0.16537 2.322765,0.19935 4.802475,1.1948 1.24938,0.50156 2.66399,0.98166 3.14358,1.06688 5.27053,0.93663 9.02898,0.63523 14.65774,-1.17541 2.75455,-0.88607 8.82995,-3.47095 9.47688,-4.03208 0.13112,-0.11378 0.47222,-0.0374 0.93529,0.20942 0.85222,0.45422 0.90312,0.3553 -1.23863,2.40687 -4.83592,4.63241 -11.11622,7.2522 -18.29663,7.63233 -1.61461,0.0855 -1.88373,0.0329 -6.03113,-1.17916 -4.66674,-1.3638 -4.82036,-1.42623 -5.904225,-2.39977 z"
         id="path4455-7"
         transform="matrix(0.75,0,0,0.75,-2.07175,-0.40725057)"
         inkscape:connector-curvature="0" /></g><path
       transform="matrix(1.0251719,0,0,1.0251719,3.8735162,6.0939571)"
       id="path4461-8"
       d="m 216.6384,234.74918 c -0.34174,-0.53977 -0.61553,-1.81607 -0.57149,-2.66411 0.0527,-1.01524 0.60493,-2.77021 1.43285,-4.55376 0.85328,-1.83815 1.46456,-3.79033 1.51976,-4.85364 0.11888,-2.28944 -1.59681,-8.80628 -3.12617,-11.8744 -2.08323,-4.17922 -5.74274,-8.16098 -9.37364,-10.19912 -0.88561,-1.19111 -0.76104,-2.29859 -0.2939,-3.58794 0.6679,-1.83584 0.99772,-2.53375 1.11804,-2.36584 0.47352,0.66098 5.03337,5.09429 5.94575,5.78076 1.97405,1.48527 4.12864,2.16972 5.89401,1.87227 0.41173,-0.0694 1.04614,-0.13437 1.40981,-0.14448 0.95733,-0.0265 6.60346,-4.44218 8.30315,-5.90558 1.91801,-1.63957 0.15506,5.17874 0.0207,5.33252 -2.10012,2.24008 -5.33142,3.9087 -8.92213,4.60737 -1.10615,0.21521 -1.48747,0.35748 -1.56084,0.58231 -0.11021,0.33774 0.44854,1.91725 1.55958,4.40878 0.62329,1.39768 0.81709,2.04524 1.16962,3.90733 1.07152,5.66024 0.84593,10.30814 -0.71109,14.65095 -0.61414,1.71306 -0.8805,2.21705 -1.47971,2.80138 -0.40192,0.39188 -1.03204,1.14239 -1.40025,1.66782 l -0.66948,0.95535 -0.26462,-0.41795 z"
       style="fill:#000000"
       inkscape:connector-curvature="0" /><path
       transform="matrix(1.3668959,0,0,1.3668959,-79.888698,84.217026)"
       id="path4465-6"
       d="m 200.65867,49.260508 c -0.0649,0.0328 -0.0861,0.199 -0.22461,0.66406 -0.4501,1.51168 -2.9288,7.55153 -4.80664,10.576169 -0.0344,0.0304 -0.0652,0.0738 -0.0898,0.13282 -0.0146,0.0229 -0.0266,0.0382 -0.041,0.0605 -1.21332,1.74756 -17.49933,8.63049 -18.92773,9.03516 -0.33443,0.0948 -0.83791,0.52343 -1.11914,0.64258 -0.7403,0.31365 -1.32454,0.15955 -3.39063,0.23828 -2.629,0.10018 -2.36496,-0.61304 -2.33398,0.8418 0.0181,0.85314 -0.92693,1.58673 0.34375,2.05664 2.22821,0.824 4.01446,0.2125 6.95703,-0.54883 0.90648,-0.23454 1.23704,-0.26709 1.35547,-0.13672 0.1779,0.19585 0.18801,1.48355 0.0273,3.595697 -0.0901,1.18488 -0.0602,1.70047 0.18555,3.11328 0.74709,4.29453 2.20685,7.43852 4.60156,9.90821 0.9446,0.97418 3.10594,3.11153 3.72656,3.30859 0.41624,0.13217 0.68743,-1.395463 0.21869,-1.532743 -0.44458,-0.601038 0.0303,-1.560916 -0.19922,-2.387599 -0.32151,-0.68532 -0.96983,-0.995998 -2.0976,-1.944898 -1.16231,-0.97795 -2.17109,-2.12013 -2.50782,-2.83789 -0.72501,-1.54547 -1.21579,-6.65564 -0.89453,-9.312497 0.28405,-2.34903 6.57453,-6.47622 11.44532,-9.87891 0.70089,0.21804 2.62339,-1.053 4.52148,-3.0957 1.68902,-1.8177 3.1512,-5.104929 4.35742,-5.683599 0.29639,-0.42049 0.20818,-0.31115 0.25,-0.38281 -0.0382,0.0685 -0.0759,0.13621 -0.0469,0.13281 0.0456,-0.005 0.25834,0.33461 0.47265,0.75391 l 0.39063,0.76172 -0.0703,2.863279 c -0.0802,3.29323 -0.24872,4.40435 -1.50782,9.96289 -1.4098,6.223937 -1.73672,8.855467 -1.53711,12.345697 0.26476,4.62917 1.68097,7.78963 4.36329,9.76563 0.002,-0.0277 -0.008,-0.0534 0.002,-0.082 0.0657,-0.18501 -0.18936,-0.71306 -0.13281,-1.23438 0.0988,-0.91033 -0.37193,-1.47407 -0.76758,-1.92773 -1.64177,-1.88253 0.22816,-3.06284 -0.40821,-6.76758 -0.36846,-2.14515 -0.38223,-1.98729 0.85743,-8.884767 1.43026,-7.95807 1.79203,-11.22043 1.65039,-14.874999 -0.12398,-3.1989 -0.50567,-5.17272 -1.54102,-7.98047 l -0.43359,-1.17968 -1.2168,0.0918 c -1.095,0.0828 -1.32346,-0.23242 -1.43164,-0.17773 z m 3.42188,43.017576 c -0.0317,0.48425 1.10308,0.80196 0.0898,0.0742 -0.0319,-0.0229 -0.0583,-0.051 -0.0898,-0.0742 z"
       style="fill:#000000"
       inkscape:connector-curvature="0" /><path
       transform="matrix(1.0251719,0,0,1.0251719,4.8226687,6.3651431)"
       id="path4465-4"
       d="m 217.42375,233.92378 c -4.40941,0.92199 -8.84107,-0.53077 -13.68637,-4.4866 -3.61071,-2.94789 -5.90101,-5.63936 -10.74914,-12.6319 -4.3298,-6.24499 -5.27169,-7.41255 -8.43666,-10.45804 l -2.75149,-2.64764 -1.10041,-0.30371 c -0.60522,-0.16704 -1.12975,-0.26306 -1.16562,-0.2134 -0.11111,0.15396 0.47418,3.79493 0.98916,6.15313 1.12297,5.14224 3.08876,9.27808 5.78741,12.17623 l 1.04419,1.12138 -0.50163,0.86754 c -0.51565,0.89179 -0.58532,0.46337 -1.64532,0.3327 -1.5301,-0.18864 -4.4118,-2.50298 -5.2728,-3.9957 -1.16772,-2.02449 -2.40225,-5.29786 -3.54915,-9.41069 -1.27321,-4.56574 -2.51197,-7.91689 -3.59501,-9.72532 -0.88644,-1.48016 -0.83983,-1.74643 0.0409,-3.91723 l 0.4901,-1.20793 2.59788,1.09058 c 3.67905,1.54444 5.97688,2.91562 9.23309,5.67542 3.72002,3.1529 6.60092,6.44773 13.13526,15.02254 5.66349,7.43203 5.52217,7.27504 7.96278,8.84525 4.21501,2.71179 7.11282,3.78488 10.4423,3.86686 0.80237,0.0198 0.86869,0.0584 1.67458,0.97551 0.46151,0.52521 0.93943,1.14418 1.06207,1.37547 0.35082,0.66172 -0.2849,1.13564 -2.00616,1.49555 z"
       style="fill:#000000"
       inkscape:connector-curvature="0" /><g
       id="g3965"
       transform="matrix(1.2850988,0,0,1.2850988,15.586221,16.069779)"
       style="fill:#000000;fill-opacity:1"><path
         style="fill:#000000"
         d="m 130.5,131.90234 c -0.1727,-0.027 -0.77586,0.4822 -1.96289,1.65235 -1.05834,1.04328 -1.92383,1.98171 -1.92383,2.08593 0,0.10424 0.40635,0.66237 0.90234,1.24024 2.94725,3.43381 5.20691,8.61284 5.78907,13.26367 0.42738,3.41433 -0.22495,9.98268 -1.18946,11.96875 -0.44795,0.9224 -1.79164,2.38777 -3.33789,3.64453 -1.2961,1.05347 -2.34134,2.16271 -2.88672,3.01758 -0.0863,0.0593 -0.1504,0.11555 -0.16015,0.15039 -0.22382,0.79977 -2.784,7.04244 -3.41797,8.06055 -1.37169,2.20281 -3.19243,3.77286 -4.98047,4.29492 -0.41701,0.12176 -1.04581,0.34689 -1.39648,0.5 -0.92312,0.40307 -2.19039,0.34453 -4.31836,-0.20117 -3.1835,-0.81639 -4.19812,-0.58524 -4.92774,1.12695 -0.60501,1.41981 -0.4829,1.66956 1.10157,2.27344 2.77843,1.05892 6.44016,1.10534 10.10937,0.12695 1.13033,-0.30141 1.54374,-0.34527 1.69141,-0.17773 0.22183,0.25168 0.23349,1.90872 0.0332,4.62304 -0.1124,1.52268 -0.074,2.18635 0.23242,4.00196 0.93159,5.51888 2.75222,9.55667 5.73828,12.73047 1.17786,1.25192 1.60504,1.58269 2.37891,1.83593 0.51903,0.16986 1.37914,0.55751 1.91211,0.86133 l 0.9707,0.55274 0.10742,-0.49024 c 0.13986,-0.63308 -0.0402,-1.89323 -0.375,-2.6289 -0.40089,-0.88071 -1.53318,-2.19659 -2.93945,-3.41602 -1.44933,-1.25676 -2.70707,-2.72409 -3.12695,-3.64648 -0.90406,-1.98608 -1.51583,-8.55443 -1.11524,-11.96875 0.54567,-4.65083 2.66325,-9.82792 5.42578,-13.26172 0.40332,-0.50132 2.35553,-4.64571 2.9336,-5.94141 2.70997,-3.0384 4.4174,-6.83366 5.32422,-11.86914 0.32693,-1.8156 0.36796,-2.47927 0.24804,-4.00195 -0.2137,-2.71432 -0.19955,-4.36941 0.0371,-4.6211 0.15755,-0.16754 0.59878,-0.12367 1.80469,0.17774 3.91455,0.97838 7.81898,0.93197 10.7832,-0.12696 1.69042,-0.60387 1.82126,-0.85558 1.17578,-2.27539 -0.7784,-1.71219 -1.86144,-1.94334 -5.25781,-1.12695 -2.27026,0.5457 -3.62063,0.60424 -4.60547,0.20117 -0.37412,-0.15311 -1.04534,-0.37628 -1.49023,-0.49804 -1.9076,-0.52206 -3.84909,-2.09212 -5.3125,-4.29493 -0.67636,-1.0181 -3.68896,-7.00101 -3.92773,-7.80078 -0.008,-0.0254 -0.0222,-0.0391 -0.0469,-0.043 z"
         transform="matrix(0.77815029,0,0,0.77815029,-18.576957,-13.77231)"
         id="path4461-7"
         inkscape:connector-curvature="0" /></g><path
       style="fill:#000000"
       d="m 111.14062,184.19922 c -0.12193,0.0102 -0.28403,0.0814 -0.50195,0.16601 -0.47365,0.18385 -0.74312,0.39069 -0.73828,0.56836 0.0214,0.87643 -1.80138,7.2709 -2.84375,9.97461 -2.13006,5.52487 -4.23776,8.59363 -8.216796,11.9668 -0.362059,0.30695 -1.601858,1.05561 -2.75586,1.66406 -1.59548,0.84124 -2.628147,1.51005 -3.261718,2.10156 4.445782,-5.13983 6.893317,-11.26532 7.126953,-17.88867 0.107281,-3.03997 1.156641,-8.01318 0.253901,-7.76953 -0.490518,0.1324 -1.797971,5.39513 -1.812495,5.57227 -0.07204,0.87371 -2.56639,7.03784 -3.890625,9.61523 -2.706012,5.26676 -5.127883,8.09295 -9.443359,11.02344 -0.238157,0.16174 -2.009922,0.89575 -3.765625,1.61133 -3.004333,-0.0142 -5.638037,-0.54574 -8.75,-1.67774 -0.446069,-0.16225 -5.796069,-2.54004 -6.921875,-3.19922 -0.811393,-0.47508 -0.484397,-0.0276 -0.605469,0.12891 l -0.371094,0.31641 -0.175781,0.98242 c 0.122591,1.20382 -0.332715,1.06469 1.548828,2.18945 5.710036,3.3012 1.341758,0.57991 5.193359,3.33985 3.410263,2.44368 4.002206,1.97033 5.585938,2.14648 0.979317,0.10892 1.950969,0.16796 2.914062,0.18555 0.148465,0.063 0.317897,0.0681 0.572266,0.004 3.289185,-0.002 6.469966,-0.53598 9.480469,-1.58984 l 0.429687,-0.0918 c -0.05339,0.006 -0.08083,-0.003 -0.111328,-0.008 -0.07219,0.0231 -0.114009,0.0314 -0.179687,0.0508 0.04776,-0.017 0.0949,-0.0355 0.142578,-0.0527 0.0078,0.003 0.02696,1.9e-4 0.03711,0.002 2.32702,-0.74395 7.945115,-3.35466 11.363281,-5.63672 3.48924,-2.32952 3.69658,-2.49905 4.63476,-3.78711 4.17216,-5.72817 6.09729,-12.30338 5.60743,-19.1543 -0.16269,-2.2756 -0.17911,-2.78435 -0.54493,-2.7539 z"
       transform="translate(-8.2870035,-1.629)"
       id="path4413"
       inkscape:connector-curvature="0" /><path
       transform="matrix(0.96780407,0.02926397,-0.02926397,0.96780407,15.304471,13.418835)"
       id="path4465"
       d="m 41.381345,198.94145 c -3.65883,-2.62791 -5.58191,-6.87665 -5.93907,-13.12148 -0.26615,-4.65365 0.17075,-8.16059 2.05049,-16.45918 1.6788,-7.41139 1.90322,-8.89462 2.01018,-13.28559 l 0.093,-3.81734 -0.51955,-1.01646 c -0.28575,-0.55906 -0.56934,-1.01064 -0.63019,-1.00353 -0.18858,0.0221 -2.47744,2.91352 -3.86808,4.88644 -3.03241,4.30212 -4.753419,8.54565 -5.066809,12.49329 l -0.12126,1.52745 -0.9785,0.21631 c -1.9712,0.43574 -2.01833,0.42141 -2.29627,-0.69823 -0.37144,-1.49628 -0.19602,-5.23366 0.32277,-6.87695 0.70362,-2.22869 2.28283,-5.35041 4.540139,-8.97467 2.50587,-4.02338 4.13956,-7.20077 4.7411,-9.22105 0.49235,-1.65356 0.55155,-1.69187 2.88756,-1.86844 l 1.62126,-0.12254 0.57964,1.57192 c 1.38046,3.74366 1.88857,6.3763 2.05388,10.64151 0.18886,4.87275 -0.791733,9.13873 -2.698753,19.7495 -1.65287,9.19664 -2.635965,10.20555 -2.144675,13.06575 0.84849,4.93965 1.256385,7.27911 3.445415,9.78915 0.52754,0.60489 1.227737,0.36201 1.096057,1.57578 -0.0754,0.69509 0.434517,1.44618 0.346857,1.69286 -0.25083,0.70571 -0.09692,0.28134 -1.525191,-0.7445 z"
       style="fill:#000000"
       inkscape:connector-curvature="0" /><path
       transform="matrix(0.9682464,0,0,0.9682464,10.835314,14.233752)"
       id="path4461"
       d="m 38.102741,178.42599 c -0.15481,-0.65684 -0.274909,-0.31091 0.09577,-1.07424 0.44376,-0.91376 2.15323,-1.89497 3.70984,-3.16017 1.60428,-1.30393 2.99641,-2.82518 3.46118,-3.7822 1.00071,-2.06062 1.67859,-8.87614 1.23517,-12.41862 -0.60401,-4.82539 -2.94919,-10.19735 -6.00706,-13.76004 -0.51461,-0.59956 -0.93565,-1.17859 -0.93565,-1.28674 0,-0.10814 0.89842,-1.08226 1.99648,-2.1647 1.40753,-1.3875 2.02282,-1.87987 2.08576,-1.66908 0.24774,0.82979 3.37176,7.03542 4.07351,8.09174 1.51834,2.28549 3.53358,3.91446 5.51278,4.45611 0.46159,0.12633 1.15685,0.35967 1.54502,0.51853 1.0218,0.4182 2.42477,0.35671 4.78024,-0.20947 3.52385,-0.84703 4.64565,-0.60632 5.45327,1.17014 0.6697,1.4731 0.53548,1.73305 -1.21838,2.35959 -3.07548,1.09867 -7.12789,1.14611 -11.18937,0.131 -1.25117,-0.31272 -1.70851,-0.35762 -1.87197,-0.18379 -0.24555,0.26113 -0.25883,1.97913 -0.0371,4.79533 0.12442,1.57983 0.0817,2.26784 -0.2575,4.15159 -1.03118,5.72603 -3.04613,9.91668 -6.35143,13.2096 -1.30378,1.29891 -1.7778,1.64155 -2.63441,1.9043 -0.57452,0.17623 -1.52725,0.57833 -2.11719,0.89356 l -1.984337,0.87375 0.247209,-1.35381 z"
       style="fill:#000000"
       inkscape:connector-curvature="0" /><g
       transform="translate(-6.0740034,102.55933)"
       style="fill:none;fill-opacity:1;stroke:#000000;stroke-opacity:1"
       id="g5193"><path
         style="fill:none;fill-opacity:1;stroke:#000000;stroke-width:2;stroke-miterlimit:4;stroke-dasharray:none;stroke-opacity:1"
         d="m 118.989,230.202 c 11.134,12.772 25.832,13.095 27.201,12.157 1.338,-0.91 6.136,-14.502 -1.674,-29.451 -0.732,-1.402 -1.568,-2.816 -2.537,-4.233 -0.453,-0.663 -1.047,-1.534 -1.695,-2.483 -2.324,-3.399 -5.375,-7.866 -5.375,-7.866 l -25.939,17.721 c 0,0 2.991,4.38 5.306,7.771 0.675,0.988 1.296,1.896 1.765,2.584 0.943,1.375 1.932,2.635 2.948,3.8 z"
         id="fill_1_"
         inkscape:connector-curvature="0" /><path
         style="fill:none;fill-opacity:1;stroke:#000000;stroke-opacity:1"
         d="m 113.639,223.175 26.007,-17.62 3.87,6.353 -25.527,17.294 z"
         id="polygon239"
         inkscape:connector-curvature="0" /><path
         style="fill:none;fill-opacity:1;stroke:#000000;stroke-opacity:1"
         d="m 124.533,235.419 23.033,-15.81 0.901,8.976 -16.613,11.201 z"
         id="polygon241"
         inkscape:connector-curvature="0" /></g><path
       id="path4423-1"
       d="m 118.91046,265.18047 c -1.52464,0.52566 -2.67313,1.43145 -3.80859,2.4043 -2.39196,2.70997 -3.63743,5.21558 -4.56446,7.37305 -1.14627,-1.28216 -2.03986,-2.25373 -2.20703,-2.34571 -0.0647,-0.0356 -0.12649,-0.0536 -0.18945,-0.0566 -0.44071,-0.021 -0.84743,0.69299 -1.30664,1.24024 -0.0799,0.0952 1.07088,1.5367 2.71094,3.50586 -0.26417,0.62106 -0.52848,1.19672 -0.81641,1.71289 -1.61028,-2.05869 -2.93747,-3.552 -3.22656,-3.24219 -0.77958,0.83542 -0.21852,0.26565 -0.95508,1.10937 -0.38931,0.44595 0.55877,2.21735 2.05078,4.54883 -1.4906,1.2924 -1.91532,1.52887 -4.04297,1.91992 -0.70223,-0.72487 -1.2415,-1.19531 -1.45508,-1.19531 -0.3298,0 -1.02884,1.06631 -1.173833,1.94727 l -0.51367,0.69726 c 0.12673,0.20306 0.56105,0.51614 1.201173,0.71485 1.1396,1.24906 4.1064,4.9969 5.04883,6.26562 5.89716,7.93897 10.24445,14.62932 10.39649,17.35352 l 0.0273,0.47265 3.12695,-2.13672 c -1.64842,-4.52503 -5.27651,-9.89758 -10.14062,-16.37695 -0.58513,-0.77942 -2.87955,-3.64897 -4.87695,-5.93359 1.35532,-0.41981 2.55332,-1.0546 3.625,-1.86719 2.28185,3.40552 5.18997,7.47864 6.98242,10.54297 3.79803,6.49307 5.25409,9.30542 6.26367,12.36719 l 2.80273,-1.91407 c -0.42399,-1.29359 -1.06431,-2.98291 -1.625,-4.19336 -1.30803,-2.82381 -5.07735,-9.63221 -5.55859,-10.03906 -0.0939,-0.0794 -3.43833,-5.01581 -6.45898,-9.07812 0.40089,-0.47867 0.78148,-0.98726 1.14843,-1.51758 4.69663,5.54777 11.31836,13.13264 11.31836,13.22852 0,0.14754 0.37099,1.11444 0.82422,2.15039 1.11267,2.54324 2.07636,5.44584 2.67383,7.86132 l 2.43945,-1.66601 c 0,0 3.051,4.46623 5.375,7.86523 0.16714,0.24477 0.27904,0.40846 0.4375,0.64063 0.10404,-0.27294 0.21701,-0.5429 0.30664,-0.82032 0.43715,-1.35278 0.46366,-1.87304 0.0937,-1.87304 -0.15043,0 -0.48823,-0.10447 -0.75195,-0.23242 -0.58656,-0.28459 -0.60663,-0.7163 -0.10352,-2.27344 0.48695,-1.50698 0.47779,-2.26457 -0.0332,-2.84375 -0.34791,-0.39434 -0.65723,-0.54048 -1.02539,-0.41992 0.51903,-3.65778 2.18942,-7.5418 4.96289,-11.47657 1.39851,-1.98407 3.69903,-4.89183 3.88867,-4.91406 0.0612,-0.007 0.3474,0.44754 0.63477,1.00977 l 0.52148,1.02148 -0.0937,3.83985 c -0.10756,4.41582 -0.33318,5.90798 -2.02148,13.36132 -1.35155,5.96676 -1.95222,9.46312 -2.0918,12.68555 2.64532,5.42294 3.66081,10.62395 3.83008,15.07227 0.64265,0.74391 1.36381,1.40844 2.17383,1.99023 1.43635,1.03165 3.06611,1.61986 3.31836,0.91016 0.0882,-0.24808 -0.62466,-1.46309 -0.54883,-2.16211 0.13242,-1.22064 0.11646,-1.29599 -0.41406,-1.9043 -2.20142,-2.52425 -3.37523,-5.40153 -4.22852,-10.36914 -0.49407,-2.87639 -0.51379,-2.66536 1.14844,-11.91406 1.91786,-10.67084 3.25667,-14.63478 1.9707,-19.36719 -1.17867,-4.33756 0.67714,-1.30003 -2.6914,-6.98828 -2.49802,-3.16006 -1.07817,-1.38878 -2.8418,-3.64649 -0.60495,2.03172 -3.65573,5.00268 -6.17578,9.04883 -2.27009,3.64477 -3.85881,6.78409 -4.56641,9.02539 -0.31659,1.00282 -0.48344,2.7544 -0.5,4.33399 -0.0691,-0.24077 -0.12235,-0.3982 -0.19336,-0.65235 -0.59297,-2.12236 -1.34781,-4.39755 -1.67578,-5.05468 -0.45224,-0.90614 -9.18829,-11.26482 -14.66016,-17.53321 0.73355,-1.2803 1.41304,-2.65098 2.07422,-4.07226 1.37108,-2.9473 4.41032,-7.07192 4.16016,-8.14063 z m -22.500003,30.17969 c -0.14915,2.22177 -1.75265,0.9827 8.566413,3.56445 0.87072,0.86725 2.22059,2.0356 2.04492,2.22266 -0.0403,0.0429 -0.69763,-0.23938 -1.46094,-0.62891 -1.80854,-0.9229 -7.211703,-1.57808 -9.568363,-2.19531 -0.0706,1.3809 0.0801,2.51953 0.0801,2.51953 1.54298,0.61565 9.494013,2.96729 10.158203,3.89453 0.28233,0.39415 0.47724,0.75422 0.4336,0.80078 l -8.523443,0.10352 c -2.66625,0.0912 -2.40419,-1.76701 -2.42578,2.45898 4.07767,0.37804 11.117073,1.46846 10.929683,1.66797 -0.0446,0.0475 -8.238813,1.0769 -11.128903,0.95313 -0.15311,1.2006 0.053,0.88677 0.61133,3.60351 l 5.339843,-0.20898 c -0.0823,1.46061 0.0594,1.73521 1.18164,2.26367 0.77428,0.36462 1.52166,0.62283 2.29688,0.83594 l 10.92382,-7.46289 -0.47265,-1.10156 c -1.59987,-3.73876 -4.39649,-8.10442 -7.28516,-11.3711 -1.53537,-1.73631 -9.411933,-1.6397 -11.701173,-1.91992 z"
       style="fill:#000000"
       inkscape:connector-curvature="0" /><g
       style="fill:#000000;fill-opacity:1"
       id="g4976"><path
         style="fill:#000000;fill-opacity:1;stroke-opacity:1"
         d="m 13.329532,61.728691 c 0.416653,-0.436265 12.196969,-7.813226 14.710319,-9.211759 5.1745,-2.879315 12.29484,-6.092405 14.68699,-6.627583 1.78022,-0.398267 4.51239,-0.16431 6.94729,0.594877 2.89978,0.904143 25.58313,10.953367 43.00915,19.053968 14.783749,6.872364 14.391289,6.655058 18.009589,9.971133 1.12057,1.02696 2.09166,1.844252 2.15797,1.816204 0.0662,-0.02811 0.0295,-0.488914 -0.0818,-1.024116 -0.26187,-1.259071 -1.31281,-2.995771 -2.62294,-4.334444 -2.18824,-2.235915 -3.05994,-2.700035 -18.126179,-9.651081 -13.58578,-6.268012 -19.67153,-9.145289 -35.79976,-16.925737 l -7.55565,-3.64493 -0.8708,-1.107982 c -1.53385,-1.951632 -2.30569,-4.537839 -5.54561,-18.58151 -1.72064,-7.458292 -3.10635,-13.6104699 -3.07935,-13.6715049 0.0921,-0.208094 4.29079,2.1030119 4.46517,2.4577789 0.0955,0.194403 0.88195,3.929294 1.74755,8.299768 1.86419,9.412502 2.50942,12.022829 3.80006,15.373431 1.27813,3.318122 1.83331,4.241341 3.12547,5.197353 2.48997,1.84226 9.94119,5.31187 26.85103,12.50301 19.604096,8.336913 26.067269,11.375099 28.757729,13.518408 2.14838,1.711485 4.64414,4.134935 6.08793,5.911567 0.60936,0.749844 1.15795,1.342189 1.21908,1.316325 0.26646,-0.112739 0.0165,-1.601989 -0.48572,-2.893423 -1.57516,-4.050738 -4.99607,-7.653609 -9.99877,-10.530583 -2.00428,-1.152619 -14.023589,-6.592816 -21.948959,-9.934566 -2.47457,-1.043331 -7.38079,-3.174495 -10.90276,-4.73589 -5.75257,-2.54999 -6.62614,-2.993011 -8.5923,-4.355119 -2.60423,-1.804234 -5.30473,-4.29923 -6.70474,-6.194537 -0.83948,-1.136471 -1.01768,-1.564693 -1.03455,-2.486106 -0.0485,-2.650622 2.4927,-8.684716 5.50283,-13.066264 l 0.68363,-0.995098 1.53915,0.68094 c 0.84652,0.374517 1.54273,0.710303 1.54707,0.74632 0.005,0.03589 -0.94499,2.368579 -2.10974,5.183653 -2.31813,5.602803 -2.40583,5.975817 -1.86172,7.919099 0.39672,1.416795 0.81969,1.91701 2.51943,2.979535 3.6,2.250396 6.50407,3.643002 20.50692,9.833859 8.64151,3.82066 15.740016,7.066293 17.085229,7.812244 6.3095,3.498646 10.94968,7.222773 14.47842,11.620138 1.71102,2.132213 1.87377,2.432878 2.66483,4.923609 1.48835,4.686045 2.381,10.463523 2.32509,15.048402 l -0.0255,2.089511 0.48691,-1.290588 c 1.08595,-2.878293 0.23078,-11.444708 -2.22822,-22.320794 -0.45819,-2.026447 -0.80108,-3.756713 -0.762,-3.84504 0.13153,-0.297303 1.21436,-0.424235 1.71806,-0.201387 0.88668,0.392282 2.44613,3.047435 2.87288,4.891416 2.17747,9.408787 2.94492,16.626708 2.35363,22.136181 -0.13228,1.232842 -0.13667,2.563208 -0.009,2.956379 l 0.23089,0.714849 0.86382,-0.365465 0.86379,-0.365469 0.31664,-2.072938 c 0.70708,-4.629239 0.61446,-7.726139 -0.53452,-17.874348 -0.8767,-7.743138 -0.86898,-7.821276 0.70276,-7.125909 0.68038,0.301011 1.01116,0.673934 1.80073,2.030041 0.53198,0.91371 1.05399,1.839773 1.16003,2.057918 0.31061,0.639037 1.09277,9.379019 1.15334,12.887373 0.0305,1.772968 -0.10916,4.442868 -0.31075,5.933122 -0.53412,3.950207 -0.53249,3.955618 1.02906,3.411571 0.99922,-0.348133 1.02699,-0.378672 1.41072,-1.551314 0.89506,-2.735129 1.56105,-8.059966 1.57989,-12.631644 0.005,-1.274914 0.0646,-2.442495 0.13183,-2.594626 0.0673,-0.15212 0.50864,-0.466117 0.98076,-0.697764 0.82646,-0.405477 0.87404,-0.400685 1.27764,0.128826 0.6828,0.895805 1.4335,3.382254 1.50843,4.996169 0.0384,0.827182 -0.22206,3.515802 -0.57883,5.974689 -0.35675,2.458904 -0.57884,4.501606 -0.49353,4.539348 0.0854,0.03775 0.61475,-0.189702 1.17653,-0.505434 2.59243,-1.456961 3.31721,-1.498788 3.7234,-0.214874 0.26267,0.830297 -0.0739,1.615321 -1.2634,2.947051 -1.22911,1.376075 -1.40574,1.829798 -0.93076,2.390809 0.21357,0.252236 0.5152,0.514761 0.67032,0.583387 0.38141,0.168742 0.11701,0.694075 -0.95077,1.889533 -3.15878,3.536472 -7.64433,5.90517 -13.64484,7.205471 -5.7001,1.2352 -12.16098,0.72513 -17.56787,-1.386912 -2.68201,-1.047661 -4.06869,-2.049931 -4.95385,-3.580571 -0.68014,-1.176066 -0.43203,-1.834133 0.78757,-2.088866 1.33236,-0.27828 2.819,-0.02591 5.71515,0.970157 8.9941,3.093329 17.03588,2.64143 24.50609,-1.377095 1.17242,-0.630676 1.21018,-0.67051 0.50486,-0.532431 -7.73898,1.514979 -15.51423,1.680862 -20.80217,0.44383 -1.58642,-0.371135 -2.69913,-0.794194 -4.86783,-1.850779 -2.97879,-1.451276 -4.61519,-2.638304 -6.27171,-4.549405 -0.91603,-1.05683 -0.93872,-1.404459 -0.18759,-2.872976 l 0.43629,-0.853048 -15.871139,-7.146284 c -8.72911,-3.930474 -17.92036,-8.052513 -20.425,-9.160096 -5.79226,-2.561708 -11.60056,-4.656865 -16.72183,-6.032381 -2.41724,-0.649234 -2.95197,-0.510768 -4.61043,1.19393 -1.11733,1.148503 -2.39462,3.765547 -3.77714,7.739026 -0.86082,2.474117 -1.72084,3.774759 -2.63366,3.983008 -0.33252,0.07586 -1.00316,-0.08364 -1.76048,-0.418694 -1.45393,-0.643237 -1.45368,-0.642242 -0.53686,-3.586765 1.34295,-4.312941 3.6082,-8.644846 5.8716,-11.228449 0.90759,-1.03598 1.17144,-1.197611 2.45747,-1.505413 2.71067,-0.648786 6.55368,-0.183319 11.5158,1.394824 1.21594,0.386711 6.10033,2.438558 11.35236,4.768917 5.07012,2.249304 14.18039,6.212875 20.24527,8.807357 7.060796,3.020405 12.939049,5.662814 16.342619,7.346289 2.92352,1.446022 5.37087,2.605702 5.43852,2.577078 0.28421,-0.120238 -1.47159,-2.285271 -2.65646,-3.275568 -2.33293,-1.94986 -3.5218,-2.573329 -15.178559,-7.960021 -6.35941,-2.938721 -16.66799,-7.732325 -22.90796,-10.652452 -17.23762,-8.066713 -18.82731,-8.763204 -20.51144,-8.986678 -2.97561,-0.394917 -5.80229,-0.233638 -8.45318,0.482291 -2.67829,0.723335 -6.15544,2.436535 -14.76457,7.274542 l -9.289352,5.220274 -2.028234,-0.897317 c -1.711908,-0.757378 -1.989848,-0.937505 -1.78236,-1.154729 z"
         id="path2161-7"
         inkscape:connector-curvature="0" /></g><path
       style="fill:#000000;fill-opacity:1"
       d="m 20.156005,70.274127 -27.6920214,-12.3622 -0.3701915,-0.670089 c -0.4656092,-0.842833 -0.511751,-3.632687 -0.09686,-5.857633 0.7160871,-3.840223 1.9235469,-7.856429 3.9619297,-13.178003 0.765696,-1.998962 2.393215,-6.330334 3.61673603,-9.625283 C 2.0045218,22.039812 3.7960908,18.065906 6.9080228,12.316738 11.604132,3.640851 15.294461,-1.176142 17.587682,-1.623479 c 0.630788,-0.123051 5.829393,1.78537796 22.566913,8.284393 15.744553,6.113457 32.154921,14.074297 40.82448,19.804382 1.955171,1.292249 2.203579,1.780378 2.249159,4.419617 0.04607,2.667678 -0.479489,5.444178 -1.579347,8.343515 -1.196658,3.154566 -1.58722,3.853422 -2.112668,3.780289 -0.671814,-0.09349 -2.56044,-0.982457 -2.812738,-1.323898 -0.364667,-0.493593 -0.192357,-1.828647 0.552381,-4.279856 1.579971,-5.20025 1.27433,-6.722416 -1.837794,-9.152829 C 71.961881,25.537427 66.175826,22.53823 54.333693,17.312676 42.825071,12.234311 33.773202,8.680338 24.47976,5.591377 22.18316,4.828031 21.49754,4.67602 20.650789,4.742443 c -2.194184,0.172125 -4.505227,1.819616 -6.820834,4.862411 -1.774297,2.331484 -2.656867,3.987016 -6.5423162,12.271895 -5.586206,11.911381 -7.73313897,17.926223 -8.876985,24.869734 -0.691234,4.196042 -0.446893,5.832345 1.17297103,7.855179 1.80124797,2.249346 0.904537,1.800872 24.11501117,12.060495 20.117183,8.89251 26.81862,11.69675 29.629175,12.39924 2.615495,0.65374 5.194652,-1.41297 8.559922,-6.85916 1.569829,-2.54052 1.686828,-2.68421 2.390759,-2.93638 1.427619,-0.51139 2.693485,0.1862 2.77034,1.52668 0.06904,1.20456 -1.440731,4.33259 -3.536461,7.327 -2.702004,3.86068 -4.730187,6.38607 -5.421892,6.75104 -1.349954,0.7123 -4.19101,0.2377 -8.075357,-1.34899 -1.191911,-0.48686 -14.628542,-6.44817 -29.859125,-13.24744 z"
       id="path4457"
       transform="matrix(1.1366483,0,0,1.1366483,-7.2007903,-8.2799358)"
       inkscape:connector-curvature="0" /></g></svg>
