<?xml version="1.0" encoding="UTF-8" standalone="no"?>
<!-- Created with Inkscape (http://www.inkscape.org/) -->

<svg
   xmlns:dc="http://purl.org/dc/elements/1.1/"
   xmlns:cc="http://creativecommons.org/ns#"
   xmlns:rdf="http://www.w3.org/1999/02/22-rdf-syntax-ns#"
   xmlns:svg="http://www.w3.org/2000/svg"
   xmlns="http://www.w3.org/2000/svg"
   xmlns:sodipodi="http://sodipodi.sourceforge.net/DTD/sodipodi-0.dtd"
   xmlns:inkscape="http://www.inkscape.org/namespaces/inkscape"
   version="1.1"
   width="550"
   height="385"
   id="svg4185"
   inkscape:version="0.48.3.1 r9886"
   sodipodi:docname="logo_small.svg">
  <sodipodi:namedview
     pagecolor="#ffffff"
     bordercolor="#666666"
     borderopacity="1"
     objecttolerance="10"
     gridtolerance="10"
     guidetolerance="10"
     inkscape:pageopacity="0"
     inkscape:pageshadow="2"
     inkscape:window-width="1600"
     inkscape:window-height="826"
     id="namedview49"
     showgrid="false"
     inkscape:zoom="1.0488889"
     inkscape:cx="238.33538"
     inkscape:cy="300.93168"
     inkscape:window-x="0"
     inkscape:window-y="30"
     inkscape:window-maximized="1"
     inkscape:current-layer="svg4185" />
  <defs
     id="defs4187">
    <filter
       x="0"
       y="0"
       width="1"
       height="1"
       color-interpolation-filters="sRGB"
       id="filter6201">
      <feColorMatrix
         result="fbSourceGraphic"
         values="1"
         type="saturate"
         id="feColorMatrix6203" />
      <feColorMatrix
         values="-1 0 0 0 1 0 -1 0 0 1 0 0 -1 0 1 0 0 0 1 0 "
         in="fbSourceGraphic"
         id="feColorMatrix6205" />
    </filter>
    <filter
       x="0"
       y="0"
       width="1"
       height="1"
       color-interpolation-filters="sRGB"
       id="filter6195">
      <feColorMatrix
         result="fbSourceGraphic"
         values="1"
         type="saturate"
         id="feColorMatrix6197" />
      <feColorMatrix
         values="-1 0 0 0 1 0 -1 0 0 1 0 0 -1 0 1 0 0 0 1 0 "
         in="fbSourceGraphic"
         id="feColorMatrix6199" />
    </filter>
    <filter
       x="0"
       y="0"
       width="1"
       height="1"
       color-interpolation-filters="sRGB"
       id="filter6189">
      <feColorMatrix
         result="fbSourceGraphic"
         values="1"
         type="saturate"
         id="feColorMatrix6191" />
      <feColorMatrix
         values="-1 0 0 0 1 0 -1 0 0 1 0 0 -1 0 1 0 0 0 1 0 "
         in="fbSourceGraphic"
         id="feColorMatrix6193" />
    </filter>
    <filter
       x="0"
       y="0"
       width="1"
       height="1"
       color-interpolation-filters="sRGB"
       id="filter6183">
      <feColorMatrix
         result="fbSourceGraphic"
         values="1"
         type="saturate"
         id="feColorMatrix6185" />
      <feColorMatrix
         values="-1 0 0 0 1 0 -1 0 0 1 0 0 -1 0 1 0 0 0 1 0 "
         in="fbSourceGraphic"
         id="feColorMatrix6187" />
    </filter>
    <filter
       x="0"
       y="0"
       width="1"
       height="1"
       color-interpolation-filters="sRGB"
       id="filter6177">
      <feColorMatrix
         result="fbSourceGraphic"
         values="1"
         type="saturate"
         id="feColorMatrix6179" />
      <feColorMatrix
         values="-1 0 0 0 1 0 -1 0 0 1 0 0 -1 0 1 0 0 0 1 0 "
         in="fbSourceGraphic"
         id="feColorMatrix6181" />
    </filter>
    <filter
       x="0"
       y="0"
       width="1"
       height="1"
       color-interpolation-filters="sRGB"
       id="filter6171">
      <feColorMatrix
         result="fbSourceGraphic"
         values="1"
         type="saturate"
         id="feColorMatrix6173" />
      <feColorMatrix
         values="-1 0 0 0 1 0 -1 0 0 1 0 0 -1 0 1 0 0 0 1 0 "
         in="fbSourceGraphic"
         id="feColorMatrix6175" />
    </filter>
    <filter
       x="0"
       y="0"
       width="1"
       height="1"
       color-interpolation-filters="sRGB"
       id="filter6171-0">
      <feColorMatrix
         result="fbSourceGraphic"
         values="1"
         type="saturate"
         id="feColorMatrix6173-3" />
      <feColorMatrix
         values="-1 0 0 0 1 0 -1 0 0 1 0 0 -1 0 1 0 0 0 1 0 "
         in="fbSourceGraphic"
         id="feColorMatrix6175-1" />
    </filter>
    <filter
       x="0"
       y="0"
       width="1"
       height="1"
       color-interpolation-filters="sRGB"
       id="filter6177-5">
      <feColorMatrix
         result="fbSourceGraphic"
         values="1"
         type="saturate"
         id="feColorMatrix6179-2" />
      <feColorMatrix
         values="-1 0 0 0 1 0 -1 0 0 1 0 0 -1 0 1 0 0 0 1 0 "
         in="fbSourceGraphic"
         id="feColorMatrix6181-1" />
    </filter>
    <filter
       x="0"
       y="0"
       width="1"
       height="1"
       color-interpolation-filters="sRGB"
       id="filter6183-5">
      <feColorMatrix
         result="fbSourceGraphic"
         values="1"
         type="saturate"
         id="feColorMatrix6185-8" />
      <feColorMatrix
         values="-1 0 0 0 1 0 -1 0 0 1 0 0 -1 0 1 0 0 0 1 0 "
         in="fbSourceGraphic"
         id="feColorMatrix6187-0" />
    </filter>
    <filter
       x="0"
       y="0"
       width="1"
       height="1"
       color-interpolation-filters="sRGB"
       id="filter6189-2">
      <feColorMatrix
         result="fbSourceGraphic"
         values="1"
         type="saturate"
         id="feColorMatrix6191-8" />
      <feColorMatrix
         values="-1 0 0 0 1 0 -1 0 0 1 0 0 -1 0 1 0 0 0 1 0 "
         in="fbSourceGraphic"
         id="feColorMatrix6193-3" />
    </filter>
    <filter
       x="0"
       y="0"
       width="1"
       height="1"
       color-interpolation-filters="sRGB"
       id="filter6195-7">
      <feColorMatrix
         result="fbSourceGraphic"
         values="1"
         type="saturate"
         id="feColorMatrix6197-4" />
      <feColorMatrix
         values="-1 0 0 0 1 0 -1 0 0 1 0 0 -1 0 1 0 0 0 1 0 "
         in="fbSourceGraphic"
         id="feColorMatrix6199-7" />
    </filter>
    <filter
       x="0"
       y="0"
       width="1"
       height="1"
       color-interpolation-filters="sRGB"
       id="filter6201-8">
      <feColorMatrix
         result="fbSourceGraphic"
         values="1"
         type="saturate"
         id="feColorMatrix6203-3" />
      <feColorMatrix
         values="-1 0 0 0 1 0 -1 0 0 1 0 0 -1 0 1 0 0 0 1 0 "
         in="fbSourceGraphic"
         id="feColorMatrix6205-1" />
    </filter>
    <filter
       x="0"
       y="0"
       width="1"
       height="1"
       color-interpolation-filters="sRGB"
       id="filter6171-0-6">
      <feColorMatrix
         result="fbSourceGraphic"
         values="1"
         type="saturate"
         id="feColorMatrix6173-3-6" />
      <feColorMatrix
         values="-1 0 0 0 1 0 -1 0 0 1 0 0 -1 0 1 0 0 0 1 0 "
         in="fbSourceGraphic"
         id="feColorMatrix6175-1-1" />
    </filter>
    <filter
       x="0"
       y="0"
       width="1"
       height="1"
       color-interpolation-filters="sRGB"
       id="filter6177-5-8">
      <feColorMatrix
         result="fbSourceGraphic"
         values="1"
         type="saturate"
         id="feColorMatrix6179-2-2" />
      <feColorMatrix
         values="-1 0 0 0 1 0 -1 0 0 1 0 0 -1 0 1 0 0 0 1 0 "
         in="fbSourceGraphic"
         id="feColorMatrix6181-1-1" />
    </filter>
    <filter
       x="0"
       y="0"
       width="1"
       height="1"
       color-interpolation-filters="sRGB"
       id="filter6183-5-4">
      <feColorMatrix
         result="fbSourceGraphic"
         values="1"
         type="saturate"
         id="feColorMatrix6185-8-3" />
      <feColorMatrix
         values="-1 0 0 0 1 0 -1 0 0 1 0 0 -1 0 1 0 0 0 1 0 "
         in="fbSourceGraphic"
         id="feColorMatrix6187-0-4" />
    </filter>
    <filter
       x="0"
       y="0"
       width="1"
       height="1"
       color-interpolation-filters="sRGB"
       id="filter6189-2-4">
      <feColorMatrix
         result="fbSourceGraphic"
         values="1"
         type="saturate"
         id="feColorMatrix6191-8-1" />
      <feColorMatrix
         values="-1 0 0 0 1 0 -1 0 0 1 0 0 -1 0 1 0 0 0 1 0 "
         in="fbSourceGraphic"
         id="feColorMatrix6193-3-2" />
    </filter>
    <filter
       x="0"
       y="0"
       width="1"
       height="1"
       color-interpolation-filters="sRGB"
       id="filter6195-7-4">
      <feColorMatrix
         result="fbSourceGraphic"
         values="1"
         type="saturate"
         id="feColorMatrix6197-4-0" />
      <feColorMatrix
         values="-1 0 0 0 1 0 -1 0 0 1 0 0 -1 0 1 0 0 0 1 0 "
         in="fbSourceGraphic"
         id="feColorMatrix6199-7-5" />
    </filter>
    <filter
       x="0"
       y="0"
       width="1"
       height="1"
       color-interpolation-filters="sRGB"
       id="filter6201-8-3">
      <feColorMatrix
         result="fbSourceGraphic"
         values="1"
         type="saturate"
         id="feColorMatrix6203-3-6" />
      <feColorMatrix
         values="-1 0 0 0 1 0 -1 0 0 1 0 0 -1 0 1 0 0 0 1 0 "
         in="fbSourceGraphic"
         id="feColorMatrix6205-1-3" />
    </filter>
    <filter
       x="0"
       y="0"
       width="1"
       height="1"
       color-interpolation-filters="sRGB"
       id="filter6171-0-6-4">
      <feColorMatrix
         result="fbSourceGraphic"
         values="1"
         type="saturate"
         id="feColorMatrix6173-3-6-7" />
      <feColorMatrix
         values="-1 0 0 0 1 0 -1 0 0 1 0 0 -1 0 1 0 0 0 1 0 "
         in="fbSourceGraphic"
         id="feColorMatrix6175-1-1-1" />
    </filter>
    <filter
       x="0"
       y="0"
       width="1"
       height="1"
       color-interpolation-filters="sRGB"
       id="filter6177-5-8-8">
      <feColorMatrix
         result="fbSourceGraphic"
         values="1"
         type="saturate"
         id="feColorMatrix6179-2-2-4" />
      <feColorMatrix
         values="-1 0 0 0 1 0 -1 0 0 1 0 0 -1 0 1 0 0 0 1 0 "
         in="fbSourceGraphic"
         id="feColorMatrix6181-1-1-4" />
    </filter>
    <filter
       x="0"
       y="0"
       width="1"
       height="1"
       color-interpolation-filters="sRGB"
       id="filter6183-5-4-2">
      <feColorMatrix
         result="fbSourceGraphic"
         values="1"
         type="saturate"
         id="feColorMatrix6185-8-3-1" />
      <feColorMatrix
         values="-1 0 0 0 1 0 -1 0 0 1 0 0 -1 0 1 0 0 0 1 0 "
         in="fbSourceGraphic"
         id="feColorMatrix6187-0-4-0" />
    </filter>
    <filter
       x="0"
       y="0"
       width="1"
       height="1"
       color-interpolation-filters="sRGB"
       id="filter6189-2-4-0">
      <feColorMatrix
         result="fbSourceGraphic"
         values="1"
         type="saturate"
         id="feColorMatrix6191-8-1-1" />
      <feColorMatrix
         values="-1 0 0 0 1 0 -1 0 0 1 0 0 -1 0 1 0 0 0 1 0 "
         in="fbSourceGraphic"
         id="feColorMatrix6193-3-2-2" />
    </filter>
    <filter
       x="0"
       y="0"
       width="1"
       height="1"
       color-interpolation-filters="sRGB"
       id="filter6195-7-4-4">
      <feColorMatrix
         result="fbSourceGraphic"
         values="1"
         type="saturate"
         id="feColorMatrix6197-4-0-6" />
      <feColorMatrix
         values="-1 0 0 0 1 0 -1 0 0 1 0 0 -1 0 1 0 0 0 1 0 "
         in="fbSourceGraphic"
         id="feColorMatrix6199-7-5-5" />
    </filter>
    <filter
       x="0"
       y="0"
       width="1"
       height="1"
       color-interpolation-filters="sRGB"
       id="filter6201-8-3-6">
      <feColorMatrix
         result="fbSourceGraphic"
         values="1"
         type="saturate"
         id="feColorMatrix6203-3-6-2" />
      <feColorMatrix
         values="-1 0 0 0 1 0 -1 0 0 1 0 0 -1 0 1 0 0 0 1 0 "
         in="fbSourceGraphic"
         id="feColorMatrix6205-1-3-0" />
    </filter>
  </defs>
  <metadata
     id="metadata4190">
    <rdf:RDF>
      <cc:Work
         rdf:about="">
        <dc:format>image/svg+xml</dc:format>
        <dc:type
           rdf:resource="http://purl.org/dc/dcmitype/StillImage" />
        <dc:title />
      </cc:Work>
    </rdf:RDF>
  </metadata>
  <g
     transform="matrix(1.0788269,0,0,1.0726132,-37.616955,-664.8143)"
     id="layer1"
     style="fill:#000000">
    <path
       inkscape:connector-curvature="0"
       d="m 20.156005,70.274127 -27.6920214,-12.3622 -0.3701915,-0.670089 c -0.4656092,-0.842833 -0.511751,-3.632687 -0.09686,-5.857633 0.7160871,-3.840223 1.9235469,-7.856429 3.9619297,-13.178003 0.765696,-1.998962 2.393215,-6.330334 3.61673603,-9.625283 C 2.0045218,22.039812 3.7960908,18.065906 6.9080228,12.316738 11.604132,3.640851 15.294461,-1.176142 17.587682,-1.623479 c 0.630788,-0.123051 5.829393,1.78537796 22.566913,8.284393 15.744553,6.113457 32.154921,14.074297 40.82448,19.804382 1.955171,1.292249 2.203579,1.780378 2.249159,4.419617 0.04607,2.667678 -0.479489,5.444178 -1.579347,8.343515 -1.196658,3.154566 -1.58722,3.853422 -2.112668,3.780289 -0.671814,-0.09349 -2.56044,-0.982457 -2.812738,-1.323898 -0.364667,-0.493593 -0.192357,-1.828647 0.552381,-4.279856 1.579971,-5.20025 1.27433,-6.722416 -1.837794,-9.152829 C 71.961881,25.537427 66.175826,22.53823 54.333693,17.312676 42.825071,12.234311 33.773202,8.680338 24.47976,5.591377 22.18316,4.828031 21.49754,4.67602 20.650789,4.742443 c -2.194184,0.172125 -4.505227,1.819616 -6.820834,4.862411 -1.774297,2.331484 -2.656867,3.987016 -6.5423162,12.271895 -5.586206,11.911381 -7.73313897,17.926223 -8.876985,24.869734 -0.691234,4.196042 -0.446893,5.832345 1.17297103,7.855179 1.80124797,2.249346 0.904537,1.800872 24.11501117,12.060495 20.117183,8.89251 26.81862,11.69675 29.629175,12.39924 2.615495,0.65374 5.194652,-1.41297 8.559922,-6.85916 1.569829,-2.54052 1.686828,-2.68421 2.390759,-2.93638 1.427619,-0.51139 2.693485,0.1862 2.77034,1.52668 0.06904,1.20456 -1.440731,4.33259 -3.536461,7.327 -2.702004,3.86068 -4.730187,6.38607 -5.421892,6.75104 -1.349954,0.7123 -4.19101,0.2377 -8.075357,-1.34899 -1.191911,-0.48686 -14.628542,-6.44817 -29.859125,-13.24744 z"
       transform="matrix(3.6242336,0,0,3.4408814,68.078169,625.92379)"
       id="path4457"
       style="fill:#000000;filter:url(#filter6171-0-6-4)" />
    <a
       transform="matrix(3.3143572,1.3921417,-1.4663238,3.1466817,89.129019,684.38736)"
       id="a4058"
       style="fill:#000000;filter:url(#filter6177-5-8-8)">
      <path
         inkscape:connector-curvature="0"
         d="m 27.948434,35.540353 c 0.18037,-0.50052 7.04913,-10.6535 8.57716,-12.67823 3.14591,-4.16853 7.74208,-9.30056 9.48042,-10.58574 1.29365,-0.95641 3.580666,-1.7426 5.815326,-1.99911 2.66132,-0.3054799 24.54141,-0.2943899 41.4861,0.021 14.37542,0.2676 13.98135,0.23238 18.08278,1.61577 1.27019,0.42842 2.345,0.74108 2.38847,0.6948 0.0434,-0.0463 -0.15066,-0.40484 -0.4314,-0.79677 -0.66045,-0.92202 -2.12772,-1.9476999 -3.66202,-2.5598799 -2.56264,-1.0225002 -3.43129,-1.0857802 -18.0626,-1.3160502 -13.19361,-0.20763 -19.12849,-0.35671 -34.91227,-0.87696 l -7.39428,-0.24372 -1.09765,-0.58289 c -1.933426,-1.02672 -3.478726,-2.83712 -11.102726,-13.0074601 -4.04894,-5.4012498 -7.36172,-9.8686098 -7.36172,-9.9274698 0,-0.20068 4.21096,0.16509 4.47819,0.38899 0.14644,0.12269 2.11333,2.85433 4.37089,6.07031 4.86199,6.9261298 6.31378,8.80116 8.55024,11.04293994 2.214776,2.22004996 2.991956,2.76653996 4.375206,3.07651996 2.66553,0.59735 9.91304,0.73693 26.11692,0.50301 18.78566,-0.27119 25.08234,-0.127 28.01699,0.64161 2.34338,0.61376 5.22096,1.67778 7.01932,2.59549 0.75901,0.38733 1.41281,0.66932 1.45288,0.62665 0.17468,-0.18601 -0.55833,-1.2979 -1.42415,-2.16027 -2.71574,-2.70493 -6.7603,-4.39006 -11.82158,-4.92534 C 98.861188,0.94310294 87.22634,0.84417294 79.64205,0.97689294 c -2.36804,0.0415 -7.0854,0.0733 -10.48303,0.0707 -5.54939,-0.004 -6.41201,-0.0496 -8.48376,-0.4465892 -2.74412,-0.52591 -5.81235,-1.57457998 -7.61774,-2.6036408 -1.08256,-0.6170401 -1.37908,-0.8988201 -1.72146,-1.6359301 -0.98492,-2.12044 -1.08842,-7.8937598 -0.22412,-12.5015798 l 0.1963,-1.04649 1.4843,0 c 0.81637,0 1.49768,0.0224 1.51403,0.0499 0.0163,0.0274 0.083,2.24747 0.14807,4.93346 0.12955,5.3458698 0.19192,5.6779998 1.32415,7.0511298 0.82548,1.00111 1.34509,1.25362 3.09507,1.50407 3.70642,0.53044 6.54549,0.61738 20.04794,0.61397 8.33274,-0.002 15.21585,0.0828 16.56694,0.20443 6.33706,0.5703801 11.40823,1.91827092 15.82324,4.2056801 2.14076,1.10914 2.3793,1.29356 3.90603,3.0201 2.87241,3.24829 5.65383,7.5893801 7.24468,11.3070901 l 0.72501,1.69431 -0.0678,-1.21461 c -0.15118,-2.70886 -3.89749,-9.3126401 -9.76145,-17.20692 -1.09259,-1.4708702 -1.98652,-2.7440002 -1.98652,-2.8291802 0,-0.28671 0.82802,-0.77545 1.31378,-0.77545 0.85509,0 3.0602,1.58498 4.06234,2.9199002 5.11333,6.8113499 8.30774,12.35885 9.79672,17.01328 0.33319,1.04151 0.80437,2.11602 1.04709,2.3878 l 0.44128,0.49415 0.56627,-0.60297 0.56626,-0.60297 -0.48428,-1.78483 c -1.08151,-3.98583 -2.26122,-6.4504701 -6.80891,-14.2251293 -3.46992,-5.9321309 -3.49158,-5.9979009 -1.97583,-5.9979009 0.65614,0 1.05598,0.18274 2.17665,0.99473 0.75507,0.5471 1.50651,1.10772 1.66987,1.24582 0.47853,0.40456 4.2279,7.1743701 5.52857,9.9822901 0.6573,1.419 1.49718,3.6222001 1.8664,4.8960101 0.97871,3.37647 0.98196,3.38025 2.04724,2.38429 0.68167,-0.63731 0.69317,-0.67185 0.58424,-1.75452 -0.25406,-2.52528 -1.6169,-7.0574601 -3.23295,-10.7512901 -0.45068,-1.0300892 -0.81941,-1.99293918 -0.81941,-2.13964918 0,-0.1467 0.24391,-0.55742 0.54203,-0.91272072 0.52186,-0.62191 0.56194,-0.63502 1.07639,-0.35198 0.87032,0.47886072 2.36297,2.2163507 2.99927,3.4912399 0.32612,0.65343 1.07539,2.91477 1.66502,5.02519 0.58964,2.1104302 1.13938,3.8371401 1.22165,3.8371401 0.0823,0 0.42812,-0.37235 0.76854,-0.82744 1.57096,-2.1000701 2.14059,-2.3924201 2.9263,-1.5018601 0.50811,0.5759202 0.5168,1.3291302 0.0326,2.8276301 -0.50028,1.54838 -0.48085,1.97734 0.10241,2.26032 0.26224,0.12723 0.59919,0.23133 0.74878,0.23133 0.36782,0 0.34209,0.518 -0.0926,1.86318 -1.28573,3.9793 -4.0582,7.49019 -8.43371,10.67996 -4.15646,3.03007 -9.54924,4.92403 -14.66356,5.14989 -2.5369,0.11203 -4.01289,-0.20153 -5.27294,-1.12017 -0.96817,-0.70583 -1.00287,-1.3251 -0.11015,-1.96571 0.97527,-0.69984 2.26431,-1.02676 4.9555,-1.2568 8.35759,-0.71441 14.68214,-3.94829 19.27309,-9.85475 0.72053,-0.92698 0.73677,-0.97258 0.21719,-0.60955 -5.70101,3.98322 -11.91265,6.89132 -16.61883,7.78045 -1.41189,0.26673 -2.46026,0.32256 -4.58634,0.24423 -2.92026,-0.1076 -4.66359,-0.48106 -6.68149,-1.43132 -1.11589,-0.52549 -1.25823,-0.79776 -1.17642,-2.25015 l 0.0475,-0.84367 -15.35016,-0.10052 c -8.44259,-0.0553 -17.32624,-0.10021 -19.74146,-0.0998 -5.58558,7.1e-4 -11.01762,0.38342 -15.63879,1.10139 -2.18119,0.33889 -2.56304,0.64136 -3.29235,2.60798 -0.49134,1.32496 -0.58769,3.89139 -0.28492,7.58935 0.18853,2.30256 -0.041,3.65841 -0.70289,4.15207 -0.24111,0.17983 -0.8389,0.29048 -1.56924,0.29048 -1.40212,0 -1.40158,7.2e-4 -1.71279,-2.70121 -0.45581,-3.95762 -0.17455,-8.25962 0.72905,-11.15094 0.36233,-1.15937 0.51745,-1.38387 1.44482,-2.09099 1.9547,-1.49046 5.22021,-2.48629 9.78532,-2.98405 1.11866,-0.12198 5.79011,-0.20996 10.85743,-0.20449 4.8917,0.005 13.65349,-0.049 19.47063,-0.12055 6.772348,-0.0834 12.45606,-0.0497 15.80177,0.0936 2.87382,0.12308 5.26142,0.18513 5.30576,0.13791 0.18633,-0.19839 -2.00226,-1.31802 -3.31122,-1.69393 -2.57728,-0.74016 -3.75858,-0.81879 -15.08194,-1.00393 -6.17751,-0.10099 -16.20192,-0.28885 -22.27647,-0.41746 -16.78066,-0.35528 -18.31127,-0.34979 -19.74929,0.0709 -2.54077,0.74323 -4.76297,1.8819 -6.645496,3.40518 -1.90198,1.53903 -4.09505,4.16144 -9.31214,11.1352 l -5.62931,7.52478 -1.95596,0 c -1.65092,0 -1.93936,-0.0461 -1.84952,-0.29533 z"
         id="path2161-7"
         style="fill:#000000" />
    </a>
    <path
       inkscape:connector-curvature="0"
       d="m 97.98583,99.229897 c -0.93467,-0.83952 -1.396,-1.5332 -1.78325,-2.68142 l -0.31556,-0.93566 0.55343,-0.10682 c 0.85677,-0.16537 2.32277,0.19935 4.80248,1.1948 1.24938,0.50156 2.66399,0.98166 3.14358,1.06688 5.27053,0.93663 9.02898,0.63524 14.65774,-1.17541 2.75455,-0.88607 8.82995,-3.47095 9.47688,-4.03208 0.13112,-0.11378 0.47222,-0.0374 0.93529,0.20942 0.85222,0.45422 0.90312,0.35529 -1.23863,2.40687 -4.83592,4.63241 -11.11622,7.252203 -18.29663,7.632333 -1.61461,0.0855 -1.88373,0.0329 -6.03113,-1.17916 -4.66674,-1.3638 -4.82036,-1.42623 -5.90423,-2.399773 z"
       transform="matrix(3.6242336,0,0,3.4408814,68.078169,625.92379)"
       id="path4455-4"
       style="fill:#000000;filter:url(#filter6201-8-3-6)" />
  </g>
</svg>
